<svg width="15" height="15" viewBox="0 0 15 15" fill="none" xmlns="http://www.w3.org/2000/svg">
<path d="M8.00647 0.328774L9.68906 4.34803C9.81782 4.65569 10.0966 4.86648 10.4166 4.89659L14.5156 5.28149C14.9793 5.35219 15.1644 5.94788 14.8281 6.29089L11.7404 9.00749C11.4904 9.22744 11.3767 9.57306 11.4454 9.90691L12.343 14.3071C12.4217 14.7902 11.9379 15.1594 11.5229 14.9303L7.94522 12.7361C7.67021 12.5672 7.33019 12.5672 7.05517 12.7361L3.47748 14.929C3.06371 15.1568 2.57869 14.7889 2.65744 14.3058L3.55499 9.9056C3.62249 9.57176 3.50998 9.22613 3.25997 9.00618L0.171057 6.2922C-0.163961 5.9505 0.0210492 5.3535 0.483574 5.2828L4.58254 4.8979C4.90256 4.86778 5.18132 4.657 5.31008 4.34934L6.99267 0.330083C7.20143 -0.109809 7.79896 -0.109809 8.00647 0.328774Z" fill="#FDD835"/>
</svg>
